HIERARCHY
ROOT root
{
	OFFSET	0	13.1	24.9
	CHANNELS 6  Xposition Yposition Zposition Xrotation Yrotation Zrotation
	JOINT spine_1
	{
		OFFSET	0	9.99999	0
		CHANNELS 3  Xrotation Yrotation Zrotation
		JOINT spine_2
		{
			OFFSET	0	112	-10
			CHANNELS 3  Xrotation Yrotation Zrotation
			JOINT spine_3
			{
				OFFSET	0	206.5	19.3
				CHANNELS 3  Xrotation Yrotation Zrotation
				JOINT spine_4
				{
					OFFSET	0	110.4	14.6
					CHANNELS 3  Xrotation Yrotation Zrotation
					JOINT neck_1
					{
						OFFSET	0	71.8	-50.3
						CHANNELS 3  Xrotation Yrotation Zrotation
						JOINT neck_2
						{
							OFFSET	0	86.2	-25.8
							CHANNELS 3  Xrotation Yrotation Zrotation
							JOINT head_ee
							{
								OFFSET	0	179.8	-8.7
								CHANNELS 3  Xrotation Yrotation Zrotation
								End Site
								{
									OFFSET	1	0	0
								}
							}
						}
					}
					JOINT left_clavicle
					{
						OFFSET	-43.2	22.4	-70.8
						CHANNELS 3  Xrotation Yrotation Zrotation
						JOINT left_shoulder
						{
							OFFSET	-93.9	-5.79999	48.7
							CHANNELS 3  Xrotation Yrotation Zrotation
							JOINT left_elbow
							{
								OFFSET	-291.4	-30.8	15.2
								CHANNELS 3  Xrotation Yrotation Zrotation
								JOINT left_lowarm_twist
								{
									OFFSET	-110.7	-3.89999	13.6
									CHANNELS 3  Xrotation Yrotation Zrotation
									JOINT left_hand
									{
										OFFSET	-110.7	-3.89999	13.6
										CHANNELS 3  Xrotation Yrotation Zrotation
										JOINT left_ee
										{
											OFFSET	-80.8	-5.10001	12.1
											CHANNELS 3  Xrotation Yrotation Zrotation
											End Site
											{
												OFFSET	1	0	0
											}
										}
									}
								}
							}
						}
					}
					JOINT right_clavicle
					{
						OFFSET	43.2	22.4	-70.8
						CHANNELS 3  Xrotation Yrotation Zrotation
						JOINT right_shoulder
						{
							OFFSET	93.9	-5.79999	48.7
							CHANNELS 3  Xrotation Yrotation Zrotation
							JOINT right_elbow
							{
								OFFSET	291.4	-30.8	15.2
								CHANNELS 3  Xrotation Yrotation Zrotation
								JOINT right_lowarm_twist
								{
									OFFSET	110.7	-3.89999	13.6
									CHANNELS 3  Xrotation Yrotation Zrotation
									JOINT right_hand
									{
										OFFSET	110.7	-3.89999	13.6
										CHANNELS 3  Xrotation Yrotation Zrotation
										JOINT right_ee
										{
											OFFSET	80.8	-5.10001	12.1
											CHANNELS 3  Xrotation Yrotation Zrotation
											End Site
											{
												OFFSET	1	0	0
											}
										}
									}
								}
							}
						}
					}
				}
			}
		}
	}
	JOINT left_hip
	{
		OFFSET	-82.8	-127.5	0.300001
		CHANNELS 3  Xrotation Yrotation Zrotation
		JOINT left_knee
		{
			OFFSET	-28.2	-396.7	2.2
			CHANNELS 3  Xrotation Yrotation Zrotation
			JOINT left_ankle
			{
				OFFSET	-11.7	-411.3	35.4
				CHANNELS 3  Xrotation Yrotation Zrotation
				JOINT left_toes
				{
					OFFSET	0	-60	-88.6
					CHANNELS 3  Xrotation Yrotation Zrotation
					JOINT left_foot_ee
					{
						OFFSET	-22.5	-16.5	-42.2
						CHANNELS 3  Xrotation Yrotation Zrotation
						End Site
						{
							OFFSET	1	0	0
						}
					}
				}
			}
		}
	}
	JOINT right_hip
	{
		OFFSET	82.8	-127.5	0.300001
		CHANNELS 3  Xrotation Yrotation Zrotation
		JOINT right_knee
		{
			OFFSET	28.2	-396.7	2.2
			CHANNELS 3  Xrotation Yrotation Zrotation
			JOINT right_ankle
			{
				OFFSET	11.7	-411.3	35.4
				CHANNELS 3  Xrotation Yrotation Zrotation
				JOINT right_toes
				{
					OFFSET	0	-60	-88.6
					CHANNELS 3  Xrotation Yrotation Zrotation
					JOINT right_foot_ee
					{
						OFFSET	22.5	-16.5	-42.2
						CHANNELS 3  Xrotation Yrotation Zrotation
						End Site
						{
							OFFSET	1	0	0
						}
					}
				}
			}
		}
	}
}
MOTION
Frames: 6
Frame Time: 0.02
1521.0 684.598 -1249.92 -18.8662 66.5838 15.0266 3.04643 -0.13709 -0.00678031 3.04642 -0.136381 -0.01549 3.04646 -0.132223 -0.0368329 3.04649 -0.136381 -0.0154884 -14.3901 10.7681 0.153296 -14.7398 20.4736 3.69355 -0.0 0.0 -0.0 3.75284 13.0725 7.75109 1.27434 -27.0989 55.6793 7.09325 -74.0758 5.35546 -50.4364 -4.12301 4.70553 -1.35071 14.3251 -2.54279 -0.0 0.0 -0.0 6.57333 1.62092 -12.7314 -31.4663 3.51785 -64.5477 0.638299 17.5468 -0.0985112 85.2413 4.45544 8.8772 -6.9511 -29.5747 26.7732 0.0 0.0 0.0 -13.373 9.9349 11.9742 0.646964 -0.027181 -0.0955592 34.3994 2.65929 -4.34558 -40.1066 0.0 0.0 -0.0 0.0 -0.0 40.5135 24.6484 -6.6469 3.26646 0.14823 0.479216 -12.0993 8.60773 -1.89446 -22.947 0.0 0.0 0.0 0.0 0.0 
1501.93 681.634 -1254.7 -21.6066 66.3742 17.9388 3.15438 -0.157224 -0.206948 3.15439 -0.143737 -0.216533 3.15493 -0.108187 -0.23631 3.15488 -0.14415 -0.216258 -11.3799 12.0394 0.0499322 -11.636 22.7594 3.3998 -0.0 0.0 -0.0 3.78705 12.6173 7.79719 1.20846 -26.8792 56.1149 6.88846 -73.6297 5.15874 -51.3674 -4.23287 4.7525 -1.24918 15.5143 -1.37573 -0.0 0.0 -0.0 6.30002 1.05246 -12.1944 -31.6387 3.4778 -64.6191 0.647357 17.7802 -0.10126 85.2187 4.45272 8.87616 -6.34021 -29.516 23.1191 0.0 0.0 0.0 -13.0462 9.64736 11.7187 -0.0213113 0.000877044 0.00315281 35.5178 2.95217 -4.45284 -39.7031 0.0 0.0 -0.0 0.0 -0.0 41.0074 25.7143 -6.68834 2.9364 0.132011 0.431177 -15.0045 10.5918 -2.38345 -19.6296 0.0 0.0 0.0 0.0 0.0 
1484.71 680.691 -1257.59 -24.1289 66.4841 20.0004 3.30113 -0.0433753 -0.293127 3.30118 -0.024635 -0.295293 3.30129 0.0209926 -0.295574 3.30117 -0.025951 -0.29518 -9.26323 12.8699 0.153259 -9.41115 24.0698 3.27391 -0.0 0.0 -0.0 4.01503 12.8819 8.18481 1.43649 -26.8651 56.9806 6.57614 -72.9001 4.85964 -51.9556 -4.30265 4.78125 -1.31459 17.5105 -0.877251 -0.0 0.0 -0.0 6.33887 0.517014 -12.2789 -31.5491 3.75729 -64.4331 0.653044 17.9264 -0.103003 85.089 4.43718 8.87022 -5.94484 -29.4378 20.8558 0.0 0.0 0.0 -12.5315 8.96834 11.634 -0.728043 0.0292928 0.107886 36.8991 3.06305 -4.58273 -39.4219 0.0 0.0 -0.0 0.0 -0.0 41.2793 26.3945 -6.28628 1.86818 0.0814269 0.275094 -16.3467 11.8992 -2.62098 -17.5649 0.0 0.0 0.0 0.0 0.0 
1465.31 681.082 -1262.67 -25.94 66.5022 21.7692 3.41527 -0.000810371 -0.345336 3.41533 0.0211658 -0.344688 3.41518 0.0731641 -0.337498 3.41502 0.0189447 -0.344817 -8.05185 13.4972 0.315448 -8.12683 25.0041 3.3175 -0.0 0.0 -0.0 3.8317 13.9488 7.90111 1.41234 -27.0372 57.7618 6.7374 -73.2846 5.01393 -52.3594 -4.35073 4.80057 -1.31951 18.832 -0.311587 -0.0 0.0 -0.0 6.22863 0.193777 -12.0652 -31.4314 3.59694 -64.5101 0.657837 18.0495 -0.104483 85.247 4.45612 8.87746 -5.62208 -29.4248 18.9981 0.0 0.0 0.0 -12.0158 8.6453 11.2258 -1.98883 0.0767643 0.295549 37.8654 3.39401 -4.67054 -39.237 0.0 0.0 -0.0 0.0 -0.0 41.336 27.0858 -5.99229 1.15596 0.049324 0.170526 -16.7295 13.3377 -2.7095 -15.0867 0.0 0.0 0.0 0.0 0.0 
1441.57 683.573 -1269.39 -26.0263 66.1655 21.7894 3.43067 0.0655242 -0.304141 3.43072 0.0847446 -0.299356 3.43025 0.129064 -0.283087 3.43015 0.0827359 -0.299917 -7.65542 14.4049 1.60889 -7.70505 25.7444 4.70997 -0.0 0.0 -0.0 3.49026 14.7984 7.36339 0.502221 -27.8153 58.3683 6.37251 -72.3892 4.66528 -52.1083 -4.32082 4.7886 -0.885855 19.9849 2.78028 -0.0 0.0 -0.0 6.31205 -0.404618 -12.2362 -31.7246 4.91113 -64.1508 0.66763 18.3004 -0.107538 85.2951 4.46189 8.87965 -5.46918 -29.1517 18.3357 0.0 0.0 0.0 -11.1825 8.52158 10.672 -6.66629 0.216514 0.999594 39.5066 3.90064 -4.81577 -38.2029 0.0 0.0 -0.0 0.0 -0.0 41.0756 27.1182 -6.29962 -1.08384 -0.043108 -0.160741 -13.2713 13.9155 -2.15208 -12.7369 0.0 0.0 0.0 0.0 0.0 
1419.9 686.703 -1272.82 -25.9091 65.6041 21.5602 3.51752 0.124302 -0.280864 3.51755 0.141922 -0.272385 3.51686 0.181128 -0.248049 3.5168 0.13968 -0.273542 -7.36268 14.5371 1.31015 -7.39307 26.1605 4.37753 -0.0 0.0 -0.0 3.2653 15.2655 7.01385 -0.935064 -28.334 58.7579 6.03447 -71.4721 4.3439 -52.0427 -4.31302 4.78545 -0.679692 20.8274 4.35391 -0.0 0.0 -0.0 6.49173 -0.547337 -12.5903 -31.4049 6.17331 -64.0427 0.680029 18.617 -0.111464 85.0272 4.42978 8.86739 -5.42049 -29.3065 17.9369 0.0 0.0 0.0 -10.2745 8.43091 10.366 -9.91811 0.279586 1.49454 40.1458 3.6283 -4.87168 -37.473 0.0 0.0 -0.0 0.0 -0.0 40.0789 27.084 -6.34983 -2.89234 -0.108235 -0.430639 -8.72765 13.421 -1.40179 -10.8577 0.0 0.0 0.0 0.0 0.0 
